<?xml version="1.0" encoding="utf-8"?>
<!-- Generator: Adobe Illustrator 28.0.0, SVG Export Plug-In . SVG Version: 6.00 Build 0)  -->
<svg version="1.1" id="Capa_1" xmlns="http://www.w3.org/2000/svg" xmlns:xlink="http://www.w3.org/1999/xlink" x="0px" y="0px"
	 viewBox="0 0 112 45" style="enable-background:new 0 0 112 45;" xml:space="preserve">
<style type="text/css">
	.st0{fill:#FFFFFF;}
</style>
<g>
	<path class="st0" d="M15.9,43.34V2.17h35.21c3.27,0,5.64,0.63,7.11,1.89c1.47,1.26,2.2,3.29,2.2,6.09v9.19
		c0,2.78-0.73,4.8-2.2,6.06c-1.47,1.26-3.83,1.89-7.11,1.89H25.33v16.04H15.9z M46.86,9.3H25.33V20.2h21.54
		c1.66,0,2.8-0.24,3.41-0.72c0.61-0.48,0.92-1.33,0.92-2.55v-4.4c0-1.19-0.31-2.03-0.92-2.51C49.66,9.54,48.52,9.3,46.86,9.3z"/>
	<path class="st0" d="M87.1,9.38H60.15v8.84h25.66c4.02,0,6.74,0.69,8.16,2.06c1.41,1.38,2.12,3.94,2.12,7.67v5.65
		c0,3.74-0.71,6.3-2.12,7.67c-1.42,1.38-4.14,2.06-8.16,2.06H60.39c-4.02,0-6.74-0.69-8.16-2.06c-1.42-1.38-2.12-3.94-2.12-7.67
		v-1.13l8.45-1.76v4.87h29.09V26.2H61.98c-4,0-6.7-0.69-8.1-2.07c-1.4-1.38-2.1-3.93-2.1-7.67v-4.55c0-3.74,0.7-6.3,2.1-7.67
		c1.4-1.38,4.1-2.06,8.1-2.06h23.37c3.87,0,6.54,0.66,8,1.98c1.47,1.32,2.2,3.68,2.2,7.05v0.86l-8.45,1.99V9.38z"/>
	<polygon class="st0" points="47.05,2.17 63.62,2.17 55.85,4.14 	"/>
	<polygon class="st0" points="67.09,26.2 52.7,27.24 57.6,24.65 	"/>
	<polygon class="st0" points="44,27.29 87.65,27.29 88.21,25.94 57.92,25.18 	"/>
	<polygon class="st0" points="50.11,32.47 50.11,31.1 58.56,30.72 50.11,30.72 	"/>
	<polygon class="st0" points="58.56,30.72 50.11,30.72 50.11,33.09 	"/>
	<path class="st0" d="M87.1,14.05"/>
</g>
<polygon class="st0" points="87.1,14.05 95.55,14.05 95.55,12.06 "/>
<g>
</g>
<g>
</g>
<g>
</g>
<g>
</g>
<g>
</g>
<g>
</g>
</svg>
